solid CATIA STL
  facet normal  0.000000e+000  1.000000e+000  0.000000e+000
    outer loop
      vertex  1.379748e+002  1.616581e+002  4.876848e+000
      vertex  0.000000e+000  1.616581e+002  4.876848e+000
      vertex  1.379748e+002  1.616581e+002  1.303629e+001
    endloop
  endfacet
  facet normal  0.000000e+000  1.000000e+000  0.000000e+000
    outer loop
      vertex  1.379748e+002  1.616581e+002  1.303629e+001
      vertex  0.000000e+000  1.616581e+002  4.876848e+000
      vertex  0.000000e+000  1.616581e+002  1.303629e+001
    endloop
  endfacet
  facet normal  1.000000e+000  0.000000e+000  -0.000000e+000
    outer loop
      vertex  1.379748e+002  1.590000e+002  4.296403e+000
      vertex  1.379748e+002  1.619235e+002  4.051857e+000
      vertex  1.379748e+002  1.619235e+002  4.854650e+000
    endloop
  endfacet
  facet normal  1.000000e+000  0.000000e+000  0.000000e+000
    outer loop
      vertex  1.379748e+002  1.590000e+002  4.296403e+000
      vertex  1.379748e+002  1.619235e+002  4.854650e+000
      vertex  1.379748e+002  1.616581e+002  4.876848e+000
    endloop
  endfacet
  facet normal  1.000000e+000  0.000000e+000  0.000000e+000
    outer loop
      vertex  1.379748e+002  1.590000e+002  4.296403e+000
      vertex  1.379748e+002  1.616581e+002  4.876848e+000
      vertex  1.379748e+002  1.603419e+002  4.986952e+000
    endloop
  endfacet
  facet normal  1.000000e+000  0.000000e+000  0.000000e+000
    outer loop
      vertex  1.379748e+002  1.590000e+002  4.296403e+000
      vertex  1.379748e+002  1.603419e+002  4.986952e+000
      vertex  1.379748e+002  1.590000e+002  5.099197e+000
    endloop
  endfacet
  facet normal  1.000000e+000  0.000000e+000  0.000000e+000
    outer loop
      vertex  1.379748e+002  1.590000e+002  1.538794e+001
      vertex  1.379748e+002  1.590000e+002  1.473325e+001
      vertex  1.379748e+002  1.619235e+002  1.500966e+001
    endloop
  endfacet
  facet normal  1.000000e+000  0.000000e+000  0.000000e+000
    outer loop
      vertex  1.379748e+002  1.619235e+002  1.500966e+001
      vertex  1.379748e+002  1.590000e+002  1.473325e+001
      vertex  1.379748e+002  1.603419e+002  1.314640e+001
    endloop
  endfacet
  facet normal  1.000000e+000  0.000000e+000  0.000000e+000
    outer loop
      vertex  1.379748e+002  1.619235e+002  1.500966e+001
      vertex  1.379748e+002  1.603419e+002  1.314640e+001
      vertex  1.379748e+002  1.619235e+002  1.326069e+001
    endloop
  endfacet
  facet normal  1.000000e+000  -0.000000e+000  0.000000e+000
    outer loop
      vertex  1.379748e+002  1.619235e+002  1.326069e+001
      vertex  1.379748e+002  1.603419e+002  1.314640e+001
      vertex  1.379748e+002  1.616581e+002  1.303629e+001
    endloop
  endfacet
  facet normal  1.000000e+000  0.000000e+000  0.000000e+000
    outer loop
      vertex  1.379748e+002  1.616581e+002  1.303629e+001
      vertex  1.379748e+002  1.603419e+002  1.314640e+001
      vertex  1.379748e+002  1.603419e+002  4.986952e+000
    endloop
  endfacet
  facet normal  1.000000e+000  -0.000000e+000  0.000000e+000
    outer loop
      vertex  1.379748e+002  1.616581e+002  1.303629e+001
      vertex  1.379748e+002  1.603419e+002  4.986952e+000
      vertex  1.379748e+002  1.616581e+002  4.876848e+000
    endloop
  endfacet
  facet normal  1.935188e-006  6.457233e-001 -7.635714e-001
    outer loop
      vertex  1.379748e+002  1.619235e+002  1.326069e+001
      vertex  1.379748e+002  1.616581e+002  1.303629e+001
      vertex  1.160420e+002  1.630000e+002  1.417100e+001
    endloop
  endfacet
  facet normal  0.000000e+000  6.457049e-001 -7.635871e-001
    outer loop
      vertex  1.160420e+002  1.630000e+002  1.417100e+001
      vertex  1.379748e+002  1.616581e+002  1.303629e+001
      vertex  0.000000e+000  1.616581e+002  1.303629e+001
    endloop
  endfacet
  facet normal  0.000000e+000  6.457049e-001 -7.635870e-001
    outer loop
      vertex  1.160420e+002  1.630000e+002  1.417100e+001
      vertex  0.000000e+000  1.616581e+002  1.303629e+001
      vertex -1.421085e-014  1.630000e+002  1.417100e+001
    endloop
  endfacet
  facet normal  4.902313e-002  9.987977e-001  0.000000e+000
    outer loop
      vertex  1.160420e+002  1.630000e+002  1.487037e+001
      vertex  1.379748e+002  1.619235e+002  1.500966e+001
      vertex  1.160420e+002  1.630000e+002  1.417100e+001
    endloop
  endfacet
  facet normal  4.902312e-002  9.987977e-001  0.000000e+000
    outer loop
      vertex  1.160420e+002  1.630000e+002  1.417100e+001
      vertex  1.379748e+002  1.619235e+002  1.500966e+001
      vertex  1.379748e+002  1.619235e+002  1.326069e+001
    endloop
  endfacet
  facet normal  0.000000e+000  1.283229e-001  9.917325e-001
    outer loop
      vertex -1.421085e-014  1.590000e+002  1.538794e+001
      vertex  1.160420e+002  1.590000e+002  1.538794e+001
      vertex -1.421085e-014  1.630000e+002  1.487037e+001
    endloop
  endfacet
  facet normal  -0.000000e+000  1.283229e-001  9.917325e-001
    outer loop
      vertex -1.421085e-014  1.630000e+002  1.487037e+001
      vertex  1.160420e+002  1.590000e+002  1.538794e+001
      vertex  1.160420e+002  1.630000e+002  1.487037e+001
    endloop
  endfacet
  facet normal  0.000000e+000  1.283229e-001  9.917324e-001
    outer loop
      vertex  1.160420e+002  1.590000e+002  1.538794e+001
      vertex  1.379748e+002  1.590000e+002  1.538794e+001
      vertex  1.160420e+002  1.630000e+002  1.487037e+001
    endloop
  endfacet
  facet normal  8.223905e-008  1.283233e-001  9.917325e-001
    outer loop
      vertex  1.160420e+002  1.630000e+002  1.487037e+001
      vertex  1.379748e+002  1.590000e+002  1.538794e+001
      vertex  1.379748e+002  1.619235e+002  1.500966e+001
    endloop
  endfacet
  facet normal  0.000000e+000 -1.000000e+000  0.000000e+000
    outer loop
      vertex  1.160420e+002  1.590000e+002  1.538794e+001
      vertex  1.160420e+002  1.590000e+002  1.473325e+001
      vertex  1.379748e+002  1.590000e+002  1.538794e+001
    endloop
  endfacet
  facet normal  0.000000e+000 -1.000000e+000  -0.000000e+000
    outer loop
      vertex  1.379748e+002  1.590000e+002  1.538794e+001
      vertex  1.160420e+002  1.590000e+002  1.473325e+001
      vertex  1.379748e+002  1.590000e+002  1.473325e+001
    endloop
  endfacet
  facet normal  0.000000e+000 -1.000000e+000  0.000000e+000
    outer loop
      vertex -1.421085e-014  1.590000e+002  1.538794e+001
      vertex -1.421085e-014  1.590000e+002  1.473325e+001
      vertex  1.160420e+002  1.590000e+002  1.538794e+001
    endloop
  endfacet
  facet normal  0.000000e+000 -1.000000e+000  -0.000000e+000
    outer loop
      vertex  1.160420e+002  1.590000e+002  1.538794e+001
      vertex -1.421085e-014  1.590000e+002  1.473325e+001
      vertex  1.160420e+002  1.590000e+002  1.473325e+001
    endloop
  endfacet
  facet normal  0.000000e+000 -7.635899e-001 -6.457015e-001
    outer loop
      vertex  1.379748e+002  1.590000e+002  1.473325e+001
      vertex  1.160420e+002  1.590000e+002  1.473325e+001
      vertex  1.379748e+002  1.603419e+002  1.314640e+001
    endloop
  endfacet
  facet normal  0.000000e+000 -7.635899e-001 -6.457015e-001
    outer loop
      vertex  1.379748e+002  1.603419e+002  1.314640e+001
      vertex  1.160420e+002  1.590000e+002  1.473325e+001
      vertex -1.421085e-014  1.590000e+002  1.473325e+001
    endloop
  endfacet
  facet normal  0.000000e+000 -7.635899e-001 -6.457015e-001
    outer loop
      vertex  1.379748e+002  1.603419e+002  1.314640e+001
      vertex -1.421085e-014  1.590000e+002  1.473325e+001
      vertex  0.000000e+000  1.603419e+002  1.314640e+001
    endloop
  endfacet
  facet normal  0.000000e+000 -1.000000e+000  -0.000000e+000
    outer loop
      vertex  1.379748e+002  1.603419e+002  4.986952e+000
      vertex  1.379748e+002  1.603419e+002  1.314640e+001
      vertex  0.000000e+000  1.603419e+002  4.986952e+000
    endloop
  endfacet
  facet normal  0.000000e+000 -1.000000e+000  0.000000e+000
    outer loop
      vertex  0.000000e+000  1.603419e+002  4.986952e+000
      vertex  1.379748e+002  1.603419e+002  1.314640e+001
      vertex  0.000000e+000  1.603419e+002  1.314640e+001
    endloop
  endfacet
  facet normal  0.000000e+000  8.335753e-002  9.965197e-001
    outer loop
      vertex  1.379748e+002  1.590000e+002  5.099197e+000
      vertex  1.379748e+002  1.603419e+002  4.986952e+000
      vertex  1.160420e+002  1.590000e+002  5.099197e+000
    endloop
  endfacet
  facet normal  0.000000e+000  8.335753e-002  9.965197e-001
    outer loop
      vertex  1.160420e+002  1.590000e+002  5.099197e+000
      vertex  1.379748e+002  1.603419e+002  4.986952e+000
      vertex  0.000000e+000  1.603419e+002  4.986952e+000
    endloop
  endfacet
  facet normal  0.000000e+000  8.335754e-002  9.965197e-001
    outer loop
      vertex  1.160420e+002  1.590000e+002  5.099197e+000
      vertex  0.000000e+000  1.603419e+002  4.986952e+000
      vertex -1.421085e-014  1.590000e+002  5.099197e+000
    endloop
  endfacet
  facet normal  2.407961e-007  8.336144e-002  9.965194e-001
    outer loop
      vertex  1.379748e+002  1.619235e+002  4.854650e+000
      vertex  1.160420e+002  1.630000e+002  4.764603e+000
      vertex  1.379748e+002  1.616581e+002  4.876848e+000
    endloop
  endfacet
  facet normal  0.000000e+000  8.335754e-002  9.965197e-001
    outer loop
      vertex  1.379748e+002  1.616581e+002  4.876848e+000
      vertex  1.160420e+002  1.630000e+002  4.764603e+000
      vertex -1.421085e-014  1.630000e+002  4.764603e+000
    endloop
  endfacet
  facet normal  0.000000e+000  8.335753e-002  9.965197e-001
    outer loop
      vertex  1.379748e+002  1.616581e+002  4.876848e+000
      vertex -1.421085e-014  1.630000e+002  4.764603e+000
      vertex  0.000000e+000  1.616581e+002  4.876848e+000
    endloop
  endfacet
  facet normal  4.902312e-002  9.987976e-001  0.000000e+000
    outer loop
      vertex  1.160420e+002  1.630000e+002  4.764603e+000
      vertex  1.379748e+002  1.619235e+002  4.854650e+000
      vertex  1.160420e+002  1.630000e+002  3.961809e+000
    endloop
  endfacet
  facet normal  4.902312e-002  9.987976e-001  0.000000e+000
    outer loop
      vertex  1.160420e+002  1.630000e+002  3.961809e+000
      vertex  1.379748e+002  1.619235e+002  4.854650e+000
      vertex  1.379748e+002  1.619235e+002  4.051857e+000
    endloop
  endfacet
  facet normal  -0.000000e+000 -8.335732e-002 -9.965196e-001
    outer loop
      vertex -1.421085e-014  1.630000e+002  3.961809e+000
      vertex  1.160420e+002  1.630000e+002  3.961809e+000
      vertex -1.421085e-014  1.590000e+002  4.296403e+000
    endloop
  endfacet
  facet normal  0.000000e+000 -8.335732e-002 -9.965196e-001
    outer loop
      vertex -1.421085e-014  1.590000e+002  4.296403e+000
      vertex  1.160420e+002  1.630000e+002  3.961809e+000
      vertex  1.160420e+002  1.590000e+002  4.296403e+000
    endloop
  endfacet
  facet normal -3.738150e-008 -8.335732e-002 -9.965197e-001
    outer loop
      vertex  1.160420e+002  1.630000e+002  3.961809e+000
      vertex  1.379748e+002  1.619235e+002  4.051857e+000
      vertex  1.160420e+002  1.590000e+002  4.296403e+000
    endloop
  endfacet
  facet normal  0.000000e+000 -8.335760e-002 -9.965197e-001
    outer loop
      vertex  1.160420e+002  1.590000e+002  4.296403e+000
      vertex  1.379748e+002  1.619235e+002  4.051857e+000
      vertex  1.379748e+002  1.590000e+002  4.296403e+000
    endloop
  endfacet
  facet normal  0.000000e+000 -1.000000e+000  0.000000e+000
    outer loop
      vertex -1.421085e-014  1.590000e+002  5.099197e+000
      vertex -1.421085e-014  1.590000e+002  4.296403e+000
      vertex  1.160420e+002  1.590000e+002  5.099197e+000
    endloop
  endfacet
  facet normal  0.000000e+000 -1.000000e+000  -0.000000e+000
    outer loop
      vertex  1.160420e+002  1.590000e+002  5.099197e+000
      vertex -1.421085e-014  1.590000e+002  4.296403e+000
      vertex  1.160420e+002  1.590000e+002  4.296403e+000
    endloop
  endfacet
  facet normal  0.000000e+000 -1.000000e+000  0.000000e+000
    outer loop
      vertex  1.160420e+002  1.590000e+002  5.099197e+000
      vertex  1.160420e+002  1.590000e+002  4.296403e+000
      vertex  1.379748e+002  1.590000e+002  5.099197e+000
    endloop
  endfacet
  facet normal  0.000000e+000 -1.000000e+000  -0.000000e+000
    outer loop
      vertex  1.379748e+002  1.590000e+002  5.099197e+000
      vertex  1.160420e+002  1.590000e+002  4.296403e+000
      vertex  1.379748e+002  1.590000e+002  4.296403e+000
    endloop
  endfacet
  facet normal -1.000000e+000  1.059043e-014  0.000000e+000
    outer loop
      vertex -1.421085e-014  1.590000e+002  4.296403e+000
      vertex -1.421085e-014  1.590000e+002  5.099197e+000
      vertex  0.000000e+000  1.603419e+002  4.986952e+000
    endloop
  endfacet
  facet normal -1.000000e+000  1.480717e-015  1.770176e-014
    outer loop
      vertex -1.421085e-014  1.590000e+002  4.296403e+000
      vertex  0.000000e+000  1.603419e+002  4.986952e+000
      vertex  0.000000e+000  1.616581e+002  4.876848e+000
    endloop
  endfacet
  facet normal -1.000000e+000 -6.176475e-015  5.276781e-014
    outer loop
      vertex -1.421085e-014  1.590000e+002  4.296403e+000
      vertex  0.000000e+000  1.616581e+002  4.876848e+000
      vertex -1.421085e-014  1.630000e+002  4.764603e+000
    endloop
  endfacet
  facet normal -1.000000e+000  0.000000e+000  -0.000000e+000
    outer loop
      vertex -1.421085e-014  1.590000e+002  4.296403e+000
      vertex -1.421085e-014  1.630000e+002  4.764603e+000
      vertex -1.421085e-014  1.630000e+002  3.961809e+000
    endloop
  endfacet
  facet normal -1.000000e+000 -5.346161e-015  0.000000e+000
    outer loop
      vertex -1.421085e-014  1.630000e+002  1.417100e+001
      vertex  0.000000e+000  1.603419e+002  1.314640e+001
      vertex -1.421085e-014  1.630000e+002  1.487037e+001
    endloop
  endfacet
  facet normal -1.000000e+000  2.983477e-016 -8.703120e-015
    outer loop
      vertex -1.421085e-014  1.630000e+002  1.487037e+001
      vertex  0.000000e+000  1.603419e+002  1.314640e+001
      vertex -1.421085e-014  1.590000e+002  1.473325e+001
    endloop
  endfacet
  facet normal -9.999999e-001  0.000000e+000  0.000000e+000
    outer loop
      vertex -1.421085e-014  1.630000e+002  1.487037e+001
      vertex -1.421085e-014  1.590000e+002  1.473325e+001
      vertex -1.421085e-014  1.590000e+002  1.538794e+001
    endloop
  endfacet
  facet normal -1.000000e+000  0.000000e+000  0.000000e+000
    outer loop
      vertex  0.000000e+000  1.616581e+002  4.876848e+000
      vertex  0.000000e+000  1.603419e+002  4.986952e+000
      vertex  0.000000e+000  1.616581e+002  1.303629e+001
    endloop
  endfacet
  facet normal -1.000000e+000  -0.000000e+000  0.000000e+000
    outer loop
      vertex  0.000000e+000  1.616581e+002  1.303629e+001
      vertex  0.000000e+000  1.603419e+002  4.986952e+000
      vertex  0.000000e+000  1.603419e+002  1.314640e+001
    endloop
  endfacet
  facet normal -1.000000e+000 -9.532966e-016 -1.139652e-014
    outer loop
      vertex  0.000000e+000  1.616581e+002  1.303629e+001
      vertex  0.000000e+000  1.603419e+002  1.314640e+001
      vertex -1.421085e-014  1.630000e+002  1.417100e+001
    endloop
  endfacet
  facet normal  0.000000e+000  1.000000e+000  -0.000000e+000
    outer loop
      vertex  1.160420e+002  1.630000e+002  4.764603e+000
      vertex  1.160420e+002  1.630000e+002  3.961809e+000
      vertex -1.421085e-014  1.630000e+002  4.764603e+000
    endloop
  endfacet
  facet normal  0.000000e+000  1.000000e+000  0.000000e+000
    outer loop
      vertex -1.421085e-014  1.630000e+002  4.764603e+000
      vertex  1.160420e+002  1.630000e+002  3.961809e+000
      vertex -1.421085e-014  1.630000e+002  3.961809e+000
    endloop
  endfacet
  facet normal  0.000000e+000  1.000000e+000  -0.000000e+000
    outer loop
      vertex  1.160420e+002  1.630000e+002  1.487037e+001
      vertex  1.160420e+002  1.630000e+002  1.417100e+001
      vertex -1.421085e-014  1.630000e+002  1.487037e+001
    endloop
  endfacet
  facet normal  0.000000e+000  1.000000e+000  0.000000e+000
    outer loop
      vertex -1.421085e-014  1.630000e+002  1.487037e+001
      vertex  1.160420e+002  1.630000e+002  1.417100e+001
      vertex -1.421085e-014  1.630000e+002  1.417100e+001
    endloop
  endfacet
endsolid CATIA STL
